<?xml version="1.0" encoding="utf-8"?>
<!-- Generator: Adobe Illustrator 16.0.0, SVG Export Plug-In . SVG Version: 6.00 Build 0)  -->
<!DOCTYPE svg PUBLIC "-//W3C//DTD SVG 1.1//EN" "http://www.w3.org/Graphics/SVG/1.1/DTD/svg11.dtd">
<svg version="1.1" id="Layer_1" xmlns="http://www.w3.org/2000/svg" xmlns:xlink="http://www.w3.org/1999/xlink" x="0px" y="0px"
	 width="38.469px" height="21.386px" viewBox="0 0 38.469 21.386" enable-background="new 0 0 38.469 21.386" xml:space="preserve">
<path fill="#EE3039" d="M20.417,0c-1.443,4.371-2.67,8.093-4.115,12.469c-1.399-3.258-2.489-5.801-3.85-8.973
	c-0.707,1.914-1.261,3.412-1.778,4.806c0,0-0.668,0-1.115,0H0v5.591h9.559c0.85-0.046,1.318-1.742,1.764-2.197
	c0.516-0.521,0.87-0.743,1.129-0.743c0.389,0,0.577,0.491,0.799,1.21c0.866,2.793,2.898,8.835,2.984,8.835
	c0.091,0,2.779-7.473,4.186-11.646c0.603,1.878,1.158,3.612,1.7,5.295c0.724,2.262,1.422,4.433,2.16,6.739
	c0.428-0.816,1.243-6.017,3.454-7.493h10.733V8.302H27.735c-0.787,0.053-2.652,3.129-3.654,3.276
	c-0.643-2.033-1.287-4.061-1.96-6.195C21.581,3.678,21.019,1.906,20.417,0L20.417,0z"/>
</svg>
